<?xml version="1.0" encoding="utf-8"?>
<!-- Generator: Adobe Illustrator 24.2.0, SVG Export Plug-In . SVG Version: 6.00 Build 0)  -->
<svg version="1.1" id="Layer_1" xmlns="http://www.w3.org/2000/svg" xmlns:xlink="http://www.w3.org/1999/xlink" x="0px" y="0px"
	 viewBox="0 0 200 200" style="enable-background:new 0 0 200 200;" xml:space="preserve">
<style type="text/css">
	.st0{fill:none;stroke:#62D3FF;stroke-width:8;stroke-miterlimit:10;}
</style>
<path class="st0" d="M156.5,51.7c-3.4-16.5-18-28.8-35.5-28.8c-4.4,0-8.7,0.8-12.6,2.3C102.6,13,90.2,4.6,75.8,4.6
	c-20,0-36.2,16.2-36.2,36.2c0,3.9,0.6,7.7,1.8,11.2c-14.6,5.7-24.9,19.9-24.9,36.5l0,0c0,21.6,17.5,39.1,39.1,39.1h87.7
	c21.6,0,39.1-17.5,39.1-39.1l0,0C182.4,71.5,171.6,57.1,156.5,51.7z"/>
</svg>
