<?xml version="1.0" encoding="utf-8"?>
<!-- Generator: Adobe Illustrator 24.2.0, SVG Export Plug-In . SVG Version: 6.00 Build 0)  -->
<svg version="1.1" id="Layer_1" xmlns="http://www.w3.org/2000/svg" xmlns:xlink="http://www.w3.org/1999/xlink" x="0px" y="0px"
	 viewBox="0 0 200 200" style="enable-background:new 0 0 200 200;" xml:space="preserve">
<style type="text/css">
	.st0{fill:none;stroke:#62D3FF;stroke-width:8;stroke-miterlimit:10;}
	.st1{fill:none;stroke:#62D3FF;stroke-width:3;stroke-linecap:round;stroke-miterlimit:10;}
</style>
<path class="st0" d="M152.6,48.8c-3.1-15-16.4-26.2-32.3-26.2c-4,0-7.9,0.7-11.5,2.1C103.5,13.6,92.3,6,79.1,6
	c-18.2,0-33,14.8-33,33c0,3.5,0.6,7,1.6,10.2c-13.3,5.2-22.7,18.1-22.7,33.2l0,0c0,19.7,16,35.6,35.6,35.6h79.8
	c19.7,0,35.6-16,35.6-35.6l0,0C176.1,66.9,166.4,53.8,152.6,48.8z"/>
<line class="st1" x1="137.9" y1="140.2" x2="131.7" y2="146.4"/>
<line class="st1" x1="137.9" y1="146.4" x2="131.7" y2="140.2"/>
<line class="st1" x1="139.2" y1="143.3" x2="130.4" y2="143.3"/>
<line class="st1" x1="134.8" y1="147.7" x2="134.8" y2="138.9"/>
<line class="st1" x1="102.5" y1="155.2" x2="96.3" y2="161.4"/>
<line class="st1" x1="102.5" y1="161.4" x2="96.3" y2="155.2"/>
<line class="st1" x1="103.8" y1="158.3" x2="95" y2="158.3"/>
<line class="st1" x1="99.4" y1="162.7" x2="99.4" y2="153.9"/>
<line class="st1" x1="68.1" y1="137.1" x2="61.9" y2="143.3"/>
<line class="st1" x1="68.1" y1="143.3" x2="61.9" y2="137.1"/>
<line class="st1" x1="69.4" y1="140.2" x2="60.6" y2="140.2"/>
<line class="st1" x1="65" y1="144.6" x2="65" y2="135.8"/>
</svg>
