<?xml version="1.0" encoding="utf-8"?>
<!-- Generator: Adobe Illustrator 24.2.0, SVG Export Plug-In . SVG Version: 6.00 Build 0)  -->
<svg version="1.1" id="Layer_1" xmlns="http://www.w3.org/2000/svg" xmlns:xlink="http://www.w3.org/1999/xlink" x="0px" y="0px"
	 viewBox="0 0 200 200" style="enable-background:new 0 0 200 200;" xml:space="preserve">
<style type="text/css">
	.st0{fill:none;stroke:#62D3FF;stroke-width:8;stroke-linecap:round;stroke-miterlimit:10;}
</style>
<path class="st0" d="M134,102c16.8,0,30.3-13.6,30.3-30.3l0,0c0-13.2-8.4-24.4-20.1-28.5c-2.6-12.8-14-22.3-27.5-22.3
	c-3.4,0-6.7,0.6-9.8,1.8c-4.5-9.5-14.1-16-25.3-16c-15.5,0-28.1,12.6-28.1,28.1c0,3,0.5,6,1.4,8.7c-11.3,4.4-19.3,15.4-19.3,28.3
	l0,0C35.7,88.4,49.2,102,66,102"/>
<line class="st0" x1="142.8" y1="116" x2="169.6" y2="116"/>
<line class="st0" x1="90" y1="133.9" x2="105.3" y2="133.9"/>
<line class="st0" x1="112.9" y1="80.3" x2="128.3" y2="80.3"/>
<line class="st0" x1="45.3" y1="133.9" x2="77" y2="133.9"/>
<line class="st0" x1="84.9" y1="98" x2="120.6" y2="98"/>
<line class="st0" x1="84.9" y1="151.9" x2="120.6" y2="151.9"/>
<line class="st0" x1="35.6" y1="116" x2="128.5" y2="116"/>
<line class="st0" x1="118.6" y1="133.9" x2="155.2" y2="133.9"/>
</svg>
