<?xml version="1.0" encoding="utf-8"?>
<!-- Generator: Adobe Illustrator 24.2.0, SVG Export Plug-In . SVG Version: 6.00 Build 0)  -->
<svg version="1.1" id="Layer_1" xmlns="http://www.w3.org/2000/svg" xmlns:xlink="http://www.w3.org/1999/xlink" x="0px" y="0px"
	 viewBox="0 0 200 200" style="enable-background:new 0 0 200 200;" xml:space="preserve">
<style type="text/css">
	.st0{fill:none;stroke:#62D3FF;stroke-width:8;stroke-miterlimit:10;}
	.st1{fill:none;stroke:#62D3FF;stroke-width:8;stroke-linecap:round;stroke-miterlimit:10;}
	.st2{fill:none;stroke:#62D3FF;stroke-width:3;stroke-linecap:round;stroke-miterlimit:10;}
</style>
<path class="st0" d="M144.9,41.1c-2.6-12.8-14-22.3-27.5-22.3c-3.4,0-6.7,0.6-9.8,1.8c-4.5-9.5-14.1-16-25.3-16
	c-15.5,0-28.1,12.6-28.1,28.1c0,3,0.5,6,1.4,8.7c-11.3,4.4-19.3,15.4-19.3,28.3l0,0c0,16.8,13.6,30.3,30.3,30.3h68
	c16.8,0,30.3-13.6,30.3-30.3l0,0C164.9,56.5,156.6,45.3,144.9,41.1z"/>
<line class="st1" x1="55.8" y1="122.3" x2="64.5" y2="136.2"/>
<line class="st1" x1="80.6" y1="114.4" x2="89.3" y2="128.3"/>
<line class="st1" x1="145.9" y1="116.2" x2="154.7" y2="130.1"/>
<line class="st1" x1="97.4" y1="143.6" x2="106.1" y2="157.5"/>
<g>
	<line class="st2" x1="83.7" y1="144" x2="77.5" y2="150.2"/>
	<line class="st2" x1="83.7" y1="150.2" x2="77.5" y2="144"/>
	<line class="st2" x1="85" y1="147.1" x2="76.2" y2="147.1"/>
	<line class="st2" x1="80.6" y1="151.5" x2="80.6" y2="142.7"/>
</g>
<g>
	<line class="st2" x1="110.6" y1="115.7" x2="104.4" y2="121.9"/>
	<line class="st2" x1="110.6" y1="121.9" x2="104.4" y2="115.7"/>
	<line class="st2" x1="111.9" y1="118.8" x2="103.1" y2="118.8"/>
	<line class="st2" x1="107.5" y1="123.2" x2="107.5" y2="114.4"/>
</g>
<g>
	<line class="st2" x1="131.3" y1="126.2" x2="125.1" y2="132.4"/>
	<line class="st2" x1="131.3" y1="132.4" x2="125.1" y2="126.2"/>
	<line class="st2" x1="132.6" y1="129.3" x2="123.8" y2="129.3"/>
	<line class="st2" x1="128.2" y1="133.6" x2="128.2" y2="124.8"/>
</g>
<g>
	<line class="st2" x1="134.4" y1="145.4" x2="128.2" y2="151.6"/>
	<line class="st2" x1="134.4" y1="151.6" x2="128.2" y2="145.4"/>
	<line class="st2" x1="135.7" y1="148.5" x2="126.9" y2="148.5"/>
	<line class="st2" x1="131.3" y1="152.8" x2="131.3" y2="144"/>
</g>
</svg>
