<?xml version="1.0" encoding="utf-8"?>
<!-- Generator: Adobe Illustrator 24.2.0, SVG Export Plug-In . SVG Version: 6.00 Build 0)  -->
<svg version="1.1" id="Layer_1" xmlns="http://www.w3.org/2000/svg" xmlns:xlink="http://www.w3.org/1999/xlink" x="0px" y="0px"
	 viewBox="0 0 200 200" style="enable-background:new 0 0 200 200;" xml:space="preserve">
<style type="text/css">
	.st0{fill:none;stroke:#62D3FF;stroke-width:8;stroke-miterlimit:10;}
	.st1{fill:none;stroke:#62D3FF;stroke-width:6;stroke-linecap:round;stroke-linejoin:round;stroke-miterlimit:10;}
</style>
<path class="st0" d="M144.9,41.1c-2.6-12.8-14-22.3-27.5-22.3c-3.4,0-6.7,0.6-9.8,1.8c-4.5-9.5-14.1-16-25.3-16
	c-15.5,0-28.1,12.6-28.1,28.1c0,3,0.5,6,1.4,8.7c-11.3,4.4-19.3,15.4-19.3,28.3l0,0c0,16.8,13.6,30.3,30.3,30.3h68
	c16.8,0,30.3-13.6,30.3-30.3l0,0C164.9,56.5,156.6,45.3,144.9,41.1z"/>
<polygon class="st1" points="77.1,126.3 78.7,117.8 71.1,113.7 64.8,119.6 68.5,127.4 "/>
<polygon class="st1" points="136.1,121.4 131.7,114 123.3,115.9 122.5,124.5 130.4,127.9 "/>
<polygon class="st1" points="94.9,133.5 102.4,137.7 108.7,131.8 105.1,124 96.5,125.1 "/>
</svg>
