<?xml version="1.0" encoding="utf-8"?>
<!-- Generator: Adobe Illustrator 24.2.1, SVG Export Plug-In . SVG Version: 6.00 Build 0)  -->
<svg version="1.1" id="Layer_1" xmlns="http://www.w3.org/2000/svg" xmlns:xlink="http://www.w3.org/1999/xlink" x="0px" y="0px"
	 viewBox="0 0 200 83.1" style="enable-background:new 0 0 200 83.1;" xml:space="preserve">
<style type="text/css">
	.st0{fill:#FFFFFF;}
</style>
<path class="st0" d="M63.4,42.5c0,0.1-0.1,0.4-0.1,0.5l-6.6,25c-0.1,0.5-0.7,0.5-1.6,0.5h-1.6c-0.7,0-1.4-0.2-1.6-0.5l-4.2-15.5
	l-0.8-5l-0.8,5L42,68c-0.1,0.5-0.7,0.5-1.6,0.5h-1.6c-0.7,0-1.4-0.2-1.6-0.5l-6.5-25c0-0.2-0.1-0.4-0.1-0.5c0-0.4,0.5-0.6,1.6-0.6
	h0.4c0.7,0,1.4,0.2,1.6,0.5l4.9,18.8c0.3,1.1,0.6,3.5,0.6,3.5l0.9-3.6l4.7-18.6c0.1-0.5,0.7-0.6,1.5-0.6h0.5c0.7,0,1.4,0.2,1.5,0.6
	l4.7,18.8c0.4,1.3,0.6,3.5,0.6,3.5l0.9-3.6l4.7-18.7c0.1-0.5,0.7-0.5,1.6-0.5h0.3C62.9,41.8,63.4,42.1,63.4,42.5z"/>
<path class="st0" d="M82.8,58.4c0,0.5-0.8,1.6-1.2,1.6H69.5c0.4,4.2,2.1,6.1,5.8,6.1c3.4,0,5.2-1.6,5.6-1.6c0.5,0,1.3,1.5,1.3,1.9
	c0,0.9-3,2.5-6.8,2.5c-6.4,0-9.3-3.3-9.3-10s3.1-10.4,8.9-10.4C80.2,48.5,82.8,51.8,82.8,58.4z M69.5,57.1h9.8c0-4-1.6-6-4.6-6
	C71.6,51.1,69.9,53.1,69.5,57.1z"/>
<path class="st0" d="M102.2,54.4V63c0,3.1,0.5,4.7,0.5,4.8c0,0.7-1.6,0.9-2,0.9c-0.9,0-1.2-1.6-1.3-2.6c-1.5,1.6-3.5,2.8-6.4,2.8
	c-3.6,0-6.5-1.8-6.5-5.7c0-6.5,6.8-6.8,12.7-6.9v-1.8c0-1.7-1.1-3.2-4.2-3.2c-3.5,0-5.6,1.6-5.9,1.6c-0.5,0-1.3-1.5-1.3-1.9
	c0-1,3.4-2.5,7.2-2.5C99.5,48.5,102.2,50.7,102.2,54.4z M89.9,62.9c0,2,1.2,3.1,3.3,3.1c2.7,0,4.5-1.2,5.9-2.6v-4.5
	C95.1,59,89.9,59,89.9,62.9z"/>
<path class="st0" d="M112.6,44.6v4h3.2c0.5,0,0.7,0.4,0.7,1.2v0.4c0,0.8-0.3,1.2-0.7,1.2h-3.2v11.9c0,2.3,1,2.8,2,2.8
	c1.2,0,1.3-0.2,1.6-0.2c0.5,0,0.8,1.5,0.8,1.8c0,1.1-1.7,1.2-2.7,1.2c-1.9,0-4.9-0.8-4.9-5.2V51.4h-1.9c-0.5,0-0.7-0.4-0.7-1.2v-0.5
	c0-0.8,0.3-1.2,0.7-1.2h1.9l0.5-4c0-0.5,0.4-0.8,1.2-0.8h0.4C112.3,43.8,112.6,44.1,112.6,44.6z"/>
<path class="st0" d="M125,40.8v10.3c1.3-1.3,3.5-2.6,5.7-2.6s6,1,6,6.2v13.2c0,0.5-0.5,0.8-1.6,0.8H135c-1.1,0-1.6-0.4-1.6-0.8v-13
	c0-2.3-1.3-3.6-3.9-3.6c-2.8,0-4.8,2.6-4.8,2.6v14c0,0.5-0.5,0.8-1.6,0.8H123c-1.1,0-1.6-0.4-1.6-0.8v-27c0-0.5,0.5-0.8,1.6-0.8h0.2
	C124.6,40,125,40.2,125,40.8z"/>
<path class="st0" d="M158.7,58.4c0,0.5-0.8,1.6-1.2,1.6h-12c0.4,4.2,2.1,6.1,5.8,6.1c3.4,0,5.2-1.6,5.6-1.6c0.5,0,1.3,1.5,1.3,1.9
	c0,0.9-3,2.5-6.8,2.5c-6.4,0-9.3-3.3-9.3-10s3-10.3,8.8-10.3C156,48.5,158.7,51.8,158.7,58.4z M145.4,57.1h9.8c0-4-1.6-6-4.6-6
	C147.4,51.1,145.6,53.1,145.4,57.1z"/>
<path class="st0" d="M173.4,49.9c0,0.7-0.4,2-0.7,2c-0.5,0-0.8-0.4-2.1-0.4c-1.9,0-3.5,2.3-3.5,2.3v14c0,0.5-0.5,0.8-1.6,0.8h-0.2
	c-1.1,0-1.6-0.4-1.6-0.8V54.5c0-3.1-0.5-4.7-0.5-4.8c0-0.7,1.6-0.9,2-0.9c0.9,0,1.2,1.6,1.3,2.6c1.3-1.8,2.8-2.8,4.4-2.8
	C172.7,48.5,173.4,49.1,173.4,49.9z"/>
<path class="st0" d="M38.7,23.5v0.6c0,0.7-0.2,1.1-0.6,1.1h-3.5v11.5c0,0.4-0.4,0.6-1.3,0.6h-0.7c-0.9,0-1.3-0.3-1.3-0.6V25.2h-3.5
	c-0.4,0-0.6-0.4-0.6-1.1v-0.6c0-0.7,0.2-1.1,0.6-1.1h10.1C38.4,22.5,38.7,22.8,38.7,23.5z"/>
<path class="st0" d="M44.7,23v4.5c0.6-0.8,1.7-1.5,3-1.5c2.1,0,3.3,1.1,3.3,3.5v7.3c0,0.4-0.4,0.6-1.3,0.6h-0.5
	c-0.9,0-1.3-0.3-1.3-0.6v-6.7c0-0.8-0.4-1.3-1.4-1.3c-0.9,0-1.5,0.7-1.7,1.2v6.8c0,0.4-0.4,0.6-1.3,0.6H43c-0.9,0-1.3-0.3-1.3-0.6
	V23.1c0-0.4,0.4-0.6,1.3-0.6h0.5C44.2,22.3,44.7,22.5,44.7,23z"/>
<path class="st0" d="M63.4,31.6c0,0.4-0.8,1.2-1.1,1.2h-5.5c0.2,1.7,1.1,2.2,2.5,2.2c1.3,0,2.3-0.6,2.6-0.6c0.5,0,1.2,1.2,1.2,1.6
	c0,1.1-2.6,1.6-3.8,1.6c-3.8,0-5.6-2.2-5.6-5.7c0-4.2,2.1-5.7,5.2-5.7C62.2,26,63.4,28.6,63.4,31.6z M56.9,30.7h3.5
	c0-1.2-0.5-2.1-1.6-2.1C57.9,28.6,57.1,29.1,56.9,30.7z"/>
<g>
	<path class="st0" d="M159.8,37.7c1.3-0.4,2.1-1.2,2.6-2.1c-0.1-2.4-1.4-4.5-3.4-5.7c0-0.3,0.1-0.5,0.1-0.8c0-1.4-0.4-2.6-1.2-3.7
		c-0.8-0.2-1.1-0.4-1.8-0.2l-1.5-1.1l-0.7,1.6c1.4,0.5,2.4,1.9,2.4,3.5c0,0.4-0.1,0.8-0.2,1.2l-0.5,1.3l1.3,0.5
		c1.6,0.6,2.6,2.2,2.6,4c0,0.4,0,0.6-0.1,1l0,0c-0.5,1.9-2.1,3.2-4.1,3.2h-12.7c-2.4,0-4.2-1.9-4.2-4.2c0-1.8,1.2-3.5,2.8-4l0.7-0.3
		l0.2-0.8c0.5-2.2,2.9-3.6,5-2.7l1.2,0.5l0.5-1.2c0.8-1.8,3.1-2.6,5-1.8l0.6-1.4l-1.1-1.5c0.2,0,0.4-0.1,0.5-0.1
		c-2.6-0.6-5.6,0.4-7.1,2.6c-3.2-0.5-6.5,1.4-7.5,4.5c-2.5,1.2-4,3.6-4,6.4c0,3.9,3.2,7.1,7.1,7.1h12.7c2.5,0,4.9-1.5,6.2-3.5
		c-0.5,0.4-1.5,0.9-2.2,1.1L159.8,37.7z"/>
	<path class="st0" d="M164.7,26.4c-1.4-2-3.5-3.5-5.8-4c-1.2-0.3-4.2-0.1-5.5,0.2c0.4,0.1,1.5,0.3,1.8,0.4l-0.4,1.1l0,0l0.8-0.5
		c1.2,0.5,0.8,0.6,1.5,1.7c0.1,0,0.3-0.3,0.4-0.3c1.9,0,4,1.6,4.9,3c1,1.5,1.3,3.2,1,4.9c-0.3,1-0.5,2-1,2.7c0,0.2-0.5,1.2-0.6,1.7
		l-0.5-0.1l0.5,0.3c-0.2,0.8-0.3,1.3-0.4,2.2c2.5-1.3,4.2-3.6,4.7-6.3C166.5,31.1,166,28.6,164.7,26.4z"/>
	<path class="st0" d="M157.9,25.3c-0.6-1-1.6-1.8-2.7-2.4l-0.5,1.2l0.9,1.2C156.2,25.1,157.1,25.1,157.9,25.3z"/>
	<path class="st0" d="M154.8,24.9l0.7-2.1c-0.4-0.2-0.4-0.1-0.7-0.2c-0.2,0-1.5-0.1-1.6-0.1L154.8,24.9z"/>
	<path class="st0" d="M161.1,37.3l1.1,0.3c0.2-0.5,0.2-1.2,0.2-1.6c0-0.2,0-0.3,0-0.4c-0.5,0.8-1.5,1.5-2.7,2.1l-0.9,3.6
		c0.6-0.2,1.7-1,2.6-1.6c0.4-0.6,0.6-1.3,0.9-2.1L161.1,37.3z"/>
</g>
<g>
	<path class="st0" d="M159.5,20.4c-0.1,0-0.2,0-0.4,0c-0.8-0.2-1.3-0.9-1.2-1.7l0.5-2.4c0.2-0.7,0.9-1.3,1.7-1.2
		c0.8,0.2,1.3,0.9,1.2,1.7l-0.5,2.4C160.7,19.9,160.1,20.4,159.5,20.4z"/>
</g>
<g>
	<path class="st0" d="M170,30.4c-0.6,0-1.2-0.4-1.4-1.1c-0.3-0.7,0.3-1.6,1-1.8l2.1-0.5c0.8-0.3,1.6,0.3,1.8,1
		c0.3,0.7-0.3,1.6-1,1.8l-2.1,0.5C170.2,30.4,170.1,30.4,170,30.4z"/>
</g>
<g>
	<path class="st0" d="M169.2,37.5c-0.5-0.4-0.8-1-0.6-1.6c0.2-0.7,1-1.2,1.7-1.1l2.1,0.5c0.7,0.3,1.2,1,1.1,1.7
		c-0.2,0.7-1,1.2-1.7,1.1l-2.1-0.5C169.4,37.6,169.3,37.6,169.2,37.5z"/>
</g>
<g>
	<path class="st0" d="M166.3,24.2c-0.3,0-0.5-0.1-0.8-0.3c-0.6-0.4-0.8-1.3-0.4-1.9l1.5-2.1c0.5-0.6,1.3-0.8,1.9-0.4
		c0.6,0.4,0.8,1.3,0.4,1.9l-1.5,2.1C167.2,23.9,166.7,24.2,166.3,24.2z"/>
</g>
</svg>
