<?xml version="1.0" encoding="utf-8"?>
<!-- Generator: Adobe Illustrator 24.2.1, SVG Export Plug-In . SVG Version: 6.00 Build 0)  -->
<svg version="1.1" id="Layer_1" xmlns="http://www.w3.org/2000/svg" xmlns:xlink="http://www.w3.org/1999/xlink" x="0px" y="0px"
	 viewBox="0 0 200 94.7" style="enable-background:new 0 0 200 94.7;" xml:space="preserve">
<style type="text/css">
	.st0{fill:#FFFFFF;}
</style>
<path class="st0" d="M61.7,37.7c0,0.1-0.1,0.4-0.1,0.6l-6.8,26c-0.1,0.5-0.8,0.6-1.6,0.6h-1.6c-0.8,0-1.5-0.2-1.6-0.6l-4.3-16.1
	L44.8,43L44,48.2l-4.3,16.1c-0.1,0.5-0.8,0.6-1.6,0.6h-1.6c-0.8,0-1.5-0.2-1.6-0.6l-6.8-26c0-0.2-0.1-0.4-0.1-0.6
	c0-0.4,0.5-0.7,1.7-0.7h0.4c0.8,0,1.5,0.2,1.6,0.6l5,19.5c0.3,1.1,0.7,3.6,0.7,3.7l1-3.8l4.8-19.3c0.1-0.5,0.8-0.7,1.5-0.7h0.6
	c0.8,0,1.4,0.2,1.5,0.7l4.9,19.5c0.4,1.4,0.7,3.6,0.7,3.6l1-3.8l4.8-19.4c0.1-0.5,0.8-0.6,1.6-0.6H60C61.2,37.1,61.7,37.3,61.7,37.7
	z"/>
<path class="st0" d="M81.8,54.2c0,0.5-0.8,1.6-1.3,1.6H68c0.3,4.4,2.2,6.4,6.1,6.4c3.4,0,5.4-1.7,5.8-1.7c0.6,0,1.4,1.5,1.4,2
	c0,1-3.1,2.5-7.1,2.5c-6.6,0-9.7-3.4-9.7-10.4c0-7,3.2-10.7,9.2-10.7C79.1,43.9,81.8,47.5,81.8,54.2z M68,53h10.3
	c0-4.2-1.6-6.3-4.7-6.3C70.1,46.8,68.3,48.8,68,53z"/>
<path class="st0" d="M102,50.1V59c0,3.2,0.5,4.8,0.5,5c0,0.8-1.6,0.9-2.1,0.9c-1,0-1.1-1.7-1.4-2.8c-1.5,1.7-3.7,3-6.6,3
	c-3.8,0-6.8-1.9-6.8-5.9c0-6.7,7.1-7.1,13.1-7.2v-1.9c0-1.8-1.1-3.3-4.4-3.3c-3.6,0-5.8,1.7-6.2,1.7c-0.6,0-1.4-1.5-1.4-2
	c0-1,3.5-2.5,7.4-2.5C99.1,43.9,102,46.2,102,50.1z M89.1,58.9c0,2.1,1.1,3.2,3.4,3.2c2.9,0,4.6-1.3,6.2-2.7v-4.7
	C94.6,54.8,89.1,54.8,89.1,58.9z"/>
<path class="st0" d="M112.8,40v4.2h3.3c0.6,0,0.8,0.4,0.8,1.2v0.5c0,0.8-0.2,1.2-0.8,1.2h-3.3v12.3c0,2.4,1,2.9,2.1,2.9
	c1.1,0,1.3-0.2,1.7-0.2c0.6,0,0.8,1.5,0.8,1.9c0,1.1-1.8,1.2-2.9,1.2c-2,0-5.1-0.9-5.1-5.5V47h-2c-0.6,0-0.8-0.4-0.8-1.2v-0.5
	c0-0.8,0.2-1.2,0.8-1.2h2l0.5-4.2c0-0.6,0.4-0.9,1.3-0.9h0.4C112.4,39.1,112.8,39.4,112.8,40z"/>
<path class="st0" d="M125.7,35.9v10.7c1.4-1.4,3.5-2.7,6.1-2.7c2.5,0,6.3,1,6.3,6.4V64c0,0.6-0.5,0.9-1.6,0.9h-0.2
	c-1.1,0-1.6-0.3-1.6-0.9V50.6c0-2.3-1.3-3.8-4-3.8c-3,0-5,2.8-5,2.8V64c0,0.6-0.5,0.9-1.6,0.9H124c-1.1,0-1.6-0.3-1.6-0.9V35.9
	c0-0.6,0.5-0.9,1.6-0.9h0.2C125.2,35.1,125.7,35.4,125.7,35.9z"/>
<path class="st0" d="M160.6,54.2c0,0.5-0.8,1.6-1.3,1.6h-12.5c0.3,4.4,2.2,6.4,6.1,6.4c3.4,0,5.4-1.7,5.8-1.7c0.6,0,1.4,1.5,1.4,2
	c0,1-3.1,2.5-7.1,2.5c-6.6,0-9.7-3.4-9.7-10.4c0-7,3.2-10.7,9.2-10.7C157.9,43.9,160.6,47.5,160.6,54.2z M146.8,53h10.3
	c0-4.2-1.6-6.3-4.7-6.3C148.9,46.8,147.1,48.8,146.8,53z"/>
<path class="st0" d="M175.9,45.4c0,0.8-0.3,2.1-0.8,2.1c-0.5,0-0.8-0.4-2.2-0.4c-2.1,0-3.6,2.4-3.6,2.4V64c0,0.6-0.5,0.9-1.6,0.9
	h-0.2c-1.1,0-1.6-0.3-1.6-0.9V50.2c0-3.2-0.5-4.8-0.5-5c0-0.8,1.6-0.9,2.1-0.9c1,0,1.1,1.6,1.4,2.6c1.3-1.9,2.9-3,4.6-3
	C175.2,43.9,175.9,44.6,175.9,45.4z"/>
<path class="st0" d="M35.9,18v0.7c0,0.8-0.2,1.1-0.7,1.1h-3.5v11.9c0,0.5-0.4,0.7-1.3,0.7h-0.8c-0.9,0-1.3-0.2-1.3-0.7V19.8h-3.5
	c-0.5,0-0.7-0.3-0.7-1.1V18c0-0.8,0.2-1.1,0.7-1.1h10.5C35.7,16.9,35.9,17.3,35.9,18z"/>
<path class="st0" d="M42.1,17.5v4.7c0.7-0.8,1.8-1.5,3.1-1.5c2.2,0,3.3,1.1,3.3,3.6v7.5c0,0.5-0.4,0.7-1.3,0.7h-0.6
	c-0.9,0-1.3-0.2-1.3-0.7v-7c0-0.9-0.4-1.4-1.4-1.4c-0.9,0-1.5,0.8-1.8,1.3v7.1c0,0.5-0.4,0.7-1.3,0.7h-0.6c-0.9,0-1.3-0.2-1.3-0.7
	V17.5c0-0.5,0.4-0.7,1.3-0.7h0.6C41.7,16.8,42.1,17,42.1,17.5z"/>
<path class="st0" d="M61.7,26.4c0,0.4-0.8,1.3-1.1,1.3h-5.7c0.2,1.8,1.1,2.3,2.5,2.3c1.4,0,2.4-0.7,2.7-0.7c0.5,0,1.2,1.2,1.2,1.7
	c0,1.1-2.7,1.6-4,1.6c-4,0-5.8-2.3-5.8-5.9c0-4.4,2.2-6.1,5.4-6.1C60.4,20.7,61.7,23.3,61.7,26.4z M54.9,25.5h3.6
	c0-1.3-0.5-2.2-1.6-2.2C56,23.3,55.2,23.8,54.9,25.5z"/>
<path class="st0" d="M137.9,68.6v12.8c0,0.4-0.4,0.6-1.2,0.6H136c-0.8,0-1.2-0.2-1.2-0.6v-5.2h-5.4v5.2c0,0.4-0.4,0.6-1.2,0.6h-0.7
	c-0.8,0-1.2-0.2-1.2-0.6V68.6c0-0.4,0.4-0.6,1.2-0.6h0.7c0.8,0,1.2,0.2,1.2,0.6v5h5.4v-5c0-0.4,0.4-0.6,1.2-0.6h0.7
	C137.6,67.9,137.9,68.1,137.9,68.6z"/>
<path class="st0" d="M149.7,76.5c0,0.3-0.8,1.2-1,1.2h-5.1c0.1,1.6,1,2.1,2.3,2.1c1.3,0,2.1-0.6,2.4-0.6c0.4,0,1,1.1,1,1.5
	c0,1-2.5,1.4-3.6,1.4c-3.6,0-5.2-2.1-5.2-5.3c0-3.9,2-5.5,4.9-5.5C148.5,71.4,149.7,73.7,149.7,76.5z M143.5,75.7h3.2
	c0-1.2-0.4-2-1.4-2C144.5,73.7,143.8,74.2,143.5,75.7z"/>
<path class="st0" d="M158.2,72.4c0,0.4-0.2,1.7-0.6,1.7c-0.3,0-0.5-0.2-0.9-0.2c-0.8,0-1.4,0.6-1.6,1v6.4c0,0.4-0.4,0.6-1.2,0.6
	h-0.6c-0.8,0-1.2-0.2-1.2-0.6V75c0-2-0.2-2.4-0.2-2.8c0-0.5,1.7-0.6,2.2-0.6c0.6,0,0.7,0.8,0.8,1.3c0.4-0.8,1-1.5,2.2-1.5
	C158.1,71.4,158.2,72,158.2,72.4z"/>
<path class="st0" d="M168.6,76.5c0,0.3-0.8,1.2-1,1.2h-5.1c0.1,1.6,1,2.1,2.3,2.1c1.3,0,2.1-0.6,2.4-0.6c0.4,0,1,1.1,1,1.5
	c0,1-2.5,1.4-3.6,1.4c-3.6,0-5.2-2.1-5.2-5.3c0-3.9,2-5.5,4.9-5.5C167.4,71.4,168.6,73.7,168.6,76.5z M162.5,75.7h3.2
	c0-1.2-0.4-2-1.4-2C163.4,73.7,162.7,74.2,162.5,75.7z"/>
<g>
	<path class="st0" d="M157.2,40.1H144c-4.1,0-7.4-3.3-7.4-7.4c0-2.8,1.6-5.4,4.1-6.6c1.1-3.2,4.4-5.2,7.8-4.6
		c1.8-2.5,5.4-3.6,8.4-2.3l-1.2,2.7c-2-0.9-4.3,0-5.2,1.9l-0.6,1.2l-1.3-0.5c-2.2-0.8-4.8,0.6-5.3,2.9l-0.2,0.8l-0.8,0.3
		c-1.7,0.6-2.9,2.3-2.9,4.1c0,2.4,2,4.4,4.4,4.4h13.2c2,0,3.8-1.4,4.3-3.4l2.9,0.7C163.5,37.8,160.6,40.1,157.2,40.1z"/>
</g>
<g>
	<path class="st0" d="M164.3,34.4l-2.9-0.7c0.1-0.4,0.1-0.7,0.1-1.1c0-1.8-1.1-3.5-2.8-4.1l-1.3-0.5l0.5-1.3
		c0.1-0.4,0.2-0.8,0.2-1.2c0-1.6-0.9-3-2.3-3.6l1.2-2.7c2.5,1.1,4.1,3.6,4.1,6.3c0,0.3,0,0.6-0.1,0.9c2.2,1.3,3.5,3.7,3.5,6.3
		C164.5,33.3,164.4,33.9,164.3,34.4z"/>
</g>
<g>
	<path class="st0" d="M161.4,37.6l-0.8-2.9c2.4-0.7,4.3-2.7,4.8-5.1c0.4-1.8,0-3.6-1-5.1c-1-1.5-2.5-2.5-4.3-2.9
		c-1-0.2-1.9-0.2-2.8,0l-0.7-2.9c1.3-0.3,2.7-0.3,4,0c2.5,0.5,4.7,2,6.1,4.1c1.4,2.2,1.9,4.8,1.4,7.3
		C167.5,33.8,164.9,36.6,161.4,37.6z"/>
</g>
<g>
	<path class="st0" d="M161.5,16.6c-0.1,0-0.2,0-0.3,0c-0.8-0.2-1.3-1-1.2-1.8l0.5-2.5c0.2-0.8,1-1.3,1.8-1.2c0.8,0.2,1.3,1,1.2,1.8
		l-0.5,2.5C162.8,16.1,162.2,16.6,161.5,16.6z"/>
</g>
<g>
	<path class="st0" d="M172.3,37.7c-0.3,0-0.6-0.1-0.9-0.3l-1.8-1.4c-0.7-0.5-0.8-1.4-0.3-2.1c0.5-0.7,1.4-0.8,2.1-0.3l1.8,1.4
		c0.7,0.5,0.8,1.4,0.3,2.1C173.2,37.5,172.8,37.7,172.3,37.7z"/>
</g>
<g>
	<path class="st0" d="M172.1,28.1c-0.6,0-1.2-0.4-1.4-1.1c-0.2-0.8,0.2-1.6,1-1.8l2.2-0.6c0.8-0.2,1.6,0.2,1.8,1
		c0.2,0.8-0.2,1.6-1,1.8l-2.2,0.6C172.4,28.1,172.2,28.1,172.1,28.1z"/>
</g>
<g>
	<path class="st0" d="M168.6,20.6c-0.3,0-0.6-0.1-0.8-0.3c-0.7-0.5-0.9-1.4-0.4-2.1l1.5-2.2c0.5-0.7,1.4-0.9,2.1-0.4
		c0.7,0.5,0.9,1.4,0.4,2.1l-1.5,2.2C169.5,20.3,169.1,20.6,168.6,20.6z"/>
</g>
</svg>
