<?xml version="1.0" encoding="utf-8"?>
<!-- Generator: Adobe Illustrator 24.2.0, SVG Export Plug-In . SVG Version: 6.00 Build 0)  -->
<svg version="1.1" id="Layer_1" xmlns="http://www.w3.org/2000/svg" xmlns:xlink="http://www.w3.org/1999/xlink" x="0px" y="0px"
	 viewBox="0 0 200 200" style="enable-background:new 0 0 200 200;" xml:space="preserve">
<style type="text/css">
	.st0{fill:none;stroke:#62D3FF;stroke-width:8;stroke-miterlimit:10;}
	.st1{fill:none;stroke:#62D3FF;stroke-width:8;stroke-linecap:round;stroke-miterlimit:10;}
</style>
<circle class="st0" cx="120.8" cy="71.1" r="35.4"/>
<line class="st1" x1="120.8" y1="13.4" x2="120.8" y2="23"/>
<line class="st1" x1="154.8" y1="24.5" x2="149.1" y2="32.3"/>
<line class="st1" x1="175.7" y1="53.3" x2="166.5" y2="56.3"/>
<line class="st1" x1="175.6" y1="89.1" x2="166.4" y2="86.1"/>
<line class="st1" x1="154.4" y1="117.9" x2="148.8" y2="110"/>
<line class="st1" x1="120.4" y1="128.7" x2="120.5" y2="119.1"/>
<line class="st1" x1="66.1" y1="52.7" x2="75.3" y2="55.8"/>
<line class="st1" x1="87.5" y1="24" x2="93" y2="31.9"/>
<path class="st0" d="M80.3,104.2c-1.4-6.6-7.2-11.5-14.2-11.5c-1.8,0-3.5,0.3-5,0.9c-2.3-4.9-7.3-8.2-13-8.2
	c-8,0-14.5,6.5-14.5,14.5c0,1.6,0.2,3.1,0.7,4.5c-5.8,2.3-10,8-10,14.6l0,0c0,8.6,7,15.6,15.6,15.6h35.1c8.6,0,15.6-7,15.6-15.6l0,0
	C90.7,112.2,86.4,106.4,80.3,104.2z"/>
</svg>
