<?xml version="1.0" encoding="utf-8"?>
<!-- Generator: Adobe Illustrator 24.2.0, SVG Export Plug-In . SVG Version: 6.00 Build 0)  -->
<svg version="1.1" id="Layer_1" xmlns="http://www.w3.org/2000/svg" xmlns:xlink="http://www.w3.org/1999/xlink" x="0px" y="0px"
	 viewBox="0 0 200 200" style="enable-background:new 0 0 200 200;" xml:space="preserve">
<style type="text/css">
	.st0{fill:none;stroke:#62D3FF;stroke-width:8;stroke-miterlimit:10;}
	.st1{fill:none;stroke:#62D3FF;stroke-width:8;stroke-linecap:round;stroke-miterlimit:10;}
</style>
<path class="st0" d="M58.3,105.1c3.1,12.9,14.7,22.5,28.6,22.5h66c16.3,0,29.4-13.2,29.4-29.4c0-12.8-8.1-23.6-19.5-27.7
	c-2.6-12.4-13.6-21.7-26.7-21.7c-3.3,0-6.5,0.6-9.5,1.7C122.3,41.3,113,35,102.1,35c-4,0-7.8,0.9-11.2,2.4"/>
<path class="st0" d="M76.2,70.7c-0.9-2.6-1.4-5.5-1.4-8.4c0-11.1,6.6-20.6,16.1-24.8c-4.6-2.1-9.8-3.2-15.2-3.2
	C55,34.2,38.2,51,38.2,71.8c0,14.5,8.2,27,20.2,33.3c-0.5-2.2-0.8-4.5-0.8-6.9C57.5,85.7,65.3,75,76.2,70.7z"/>
<line class="st1" x1="75.8" y1="10.4" x2="75.8" y2="20.7"/>
<line class="st1" x1="39.3" y1="121.1" x2="45.4" y2="112.9"/>
<line class="st1" x1="17.2" y1="90.2" x2="27.1" y2="87.1"/>
<line class="st1" x1="17.6" y1="52.2" x2="27.4" y2="55.5"/>
<line class="st1" x1="40.3" y1="21.7" x2="46.2" y2="30.1"/>
</svg>
