<?xml version="1.0" encoding="utf-8"?>
<!-- Generator: Adobe Illustrator 24.2.1, SVG Export Plug-In . SVG Version: 6.00 Build 0)  -->
<svg version="1.1" id="Layer_1" xmlns="http://www.w3.org/2000/svg" xmlns:xlink="http://www.w3.org/1999/xlink" x="0px" y="0px"
	 viewBox="0 0 100 100" style="enable-background:new 0 0 100 100;" xml:space="preserve">
<style type="text/css">
	.st0{fill:none;stroke:#62D3FF;stroke-width:4;stroke-linecap:round;stroke-linejoin:round;stroke-miterlimit:10;}
	.st1{fill:none;stroke:#62D3FF;stroke-width:4;stroke-linecap:round;stroke-miterlimit:10;}
</style>
<circle class="st0" cx="52.2" cy="54.2" r="7.2"/>
<path class="st1" d="M74.2,45.1c-1.4-3.3-4.8-5.2-8.2-4.7c0.5-3.4-1.4-6.8-4.7-8.2c-3.3-1.4-7.1-0.2-9.1,2.5
	c-2.1-2.8-5.8-3.9-9.1-2.5c-3.3,1.4-5.1,4.7-4.7,8.1c-3.4-0.4-6.7,1.4-8.1,4.7c-1.4,3.3-0.3,7.1,2.5,9.1c-2.8,2.1-3.9,5.8-2.5,9.1
	c1.4,3.3,4.8,5.2,8.2,4.7c-0.5,3.4,1.3,6.9,4.7,8.2c3.3,1.4,7.1,0.3,9.1-2.5c2.1,2.8,5.8,3.9,9.1,2.5c3.3-1.4,5.2-4.8,4.7-8.2
	c3.4,0.5,6.9-1.3,8.2-4.7c1.4-3.3,0.3-7.1-2.5-9.1C74.4,52.1,75.6,48.4,74.2,45.1z"/>
<line class="st1" x1="48.8" y1="76.5" x2="48.8" y2="90.4"/>
<line class="st1" x1="55.3" y1="76.5" x2="55.3" y2="90.4"/>
<line class="st1" x1="13.2" y1="48.8" x2="16.2" y2="49.5"/>
<line class="st1" x1="23" y1="30.6" x2="25.2" y2="32.7"/>
<line class="st1" x1="9.2" y1="6.7" x2="11.4" y2="8.8"/>
<line class="st1" x1="40.6" y1="19.8" x2="41.4" y2="22.7"/>
<line class="st1" x1="61.2" y1="19.3" x2="60.5" y2="22.3"/>
<line class="st1" x1="79.3" y1="29.2" x2="77.2" y2="31.4"/>
<line class="st1" x1="92.4" y1="6.7" x2="90.3" y2="8.9"/>
<line class="st1" x1="90" y1="46.8" x2="87.1" y2="47.7"/>
<line class="st1" x1="10.3" y1="27.9" x2="13.5" y2="29.7"/>
<line class="st1" x1="27.7" y1="10.5" x2="29.5" y2="13.6"/>
<line class="st1" x1="51.4" y1="4.1" x2="51.4" y2="7.7"/>
<line class="st1" x1="75.1" y1="10.5" x2="73.3" y2="13.7"/>
<line class="st1" x1="92.5" y1="28" x2="89.3" y2="29.8"/>
</svg>
