<?xml version="1.0" encoding="utf-8"?>
<!-- Generator: Adobe Illustrator 24.2.0, SVG Export Plug-In . SVG Version: 6.00 Build 0)  -->
<svg version="1.1" id="Layer_1" xmlns="http://www.w3.org/2000/svg" xmlns:xlink="http://www.w3.org/1999/xlink" x="0px" y="0px"
	 viewBox="0 0 200 200" style="enable-background:new 0 0 200 200;" xml:space="preserve">
<style type="text/css">
	.st0{fill:none;stroke:#62D3FF;stroke-width:8;stroke-miterlimit:10;}
	.st1{fill:none;stroke:#62D3FF;stroke-width:3;stroke-linecap:round;stroke-miterlimit:10;}
</style>
<path class="st0" d="M152.6,48.8c-3.1-15-16.4-26.2-32.3-26.2c-4,0-7.9,0.7-11.5,2.1C103.5,13.6,92.3,6,79.1,6
	c-18.2,0-33,14.8-33,33c0,3.5,0.6,7,1.6,10.2c-13.3,5.2-22.7,18.1-22.7,33.2l0,0c0,19.7,16,35.6,35.6,35.6h79.8
	c19.7,0,35.6-16,35.6-35.6l0,0C176.1,66.9,166.4,53.8,152.6,48.8z"/>
<g>
	<line class="st1" x1="137.9" y1="140.2" x2="131.7" y2="146.4"/>
	<line class="st1" x1="137.9" y1="146.4" x2="131.7" y2="140.2"/>
	<line class="st1" x1="139.2" y1="143.3" x2="130.4" y2="143.3"/>
	<line class="st1" x1="134.8" y1="147.7" x2="134.8" y2="138.9"/>
</g>
<g>
	<line class="st1" x1="119.1" y1="162.3" x2="112.9" y2="168.5"/>
	<line class="st1" x1="119.1" y1="168.5" x2="112.9" y2="162.3"/>
	<line class="st1" x1="120.4" y1="165.4" x2="111.6" y2="165.4"/>
	<line class="st1" x1="116" y1="169.8" x2="116" y2="161"/>
</g>
<g>
	<line class="st1" x1="152" y1="162.3" x2="145.8" y2="168.5"/>
	<line class="st1" x1="152" y1="168.5" x2="145.8" y2="162.3"/>
	<line class="st1" x1="153.3" y1="165.4" x2="144.5" y2="165.4"/>
	<line class="st1" x1="148.9" y1="169.8" x2="148.9" y2="161"/>
</g>
<g>
	<line class="st1" x1="103.7" y1="138.9" x2="97.5" y2="145.1"/>
	<line class="st1" x1="103.7" y1="145.1" x2="97.5" y2="138.9"/>
	<line class="st1" x1="105" y1="142" x2="96.2" y2="142"/>
	<line class="st1" x1="100.6" y1="146.4" x2="100.6" y2="137.6"/>
</g>
<g>
	<line class="st1" x1="84.9" y1="161" x2="78.7" y2="167.2"/>
	<line class="st1" x1="84.9" y1="167.2" x2="78.7" y2="161"/>
	<line class="st1" x1="86.2" y1="164.1" x2="77.4" y2="164.1"/>
	<line class="st1" x1="81.8" y1="168.5" x2="81.8" y2="159.7"/>
</g>
<g>
	<line class="st1" x1="69.5" y1="137.6" x2="63.3" y2="143.8"/>
	<line class="st1" x1="69.5" y1="143.8" x2="63.3" y2="137.6"/>
	<line class="st1" x1="70.8" y1="140.7" x2="62" y2="140.7"/>
	<line class="st1" x1="66.4" y1="145.1" x2="66.4" y2="136.3"/>
</g>
<g>
	<line class="st1" x1="50.7" y1="159.7" x2="44.5" y2="165.9"/>
	<line class="st1" x1="50.7" y1="165.9" x2="44.5" y2="159.7"/>
	<line class="st1" x1="52" y1="162.8" x2="43.2" y2="162.8"/>
	<line class="st1" x1="47.6" y1="167.2" x2="47.6" y2="158.4"/>
</g>
</svg>
