<?xml version="1.0" encoding="utf-8"?>
<!-- Generator: Adobe Illustrator 24.2.0, SVG Export Plug-In . SVG Version: 6.00 Build 0)  -->
<svg version="1.1" id="Layer_1" xmlns="http://www.w3.org/2000/svg" xmlns:xlink="http://www.w3.org/1999/xlink" x="0px" y="0px"
	 viewBox="0 0 200 200" style="enable-background:new 0 0 200 200;" xml:space="preserve">
<style type="text/css">
	.st0{fill:none;stroke:#62D3FF;stroke-width:8;stroke-linecap:round;stroke-linejoin:round;stroke-miterlimit:10;}
	.st1{fill:none;stroke:#62D3FF;stroke-width:5;stroke-linecap:round;stroke-linejoin:round;stroke-miterlimit:10;}
</style>
<polygon class="st0" points="54.6,46.4 47.5,65.4 60.5,81.1 80.5,77.7 87.6,58.7 74.7,43 "/>
<polygon class="st0" points="64.9,58.9 63.5,62.8 66.1,66 70.2,65.3 71.6,61.4 69,58.2 "/>
<line class="st0" x1="69" y1="58.2" x2="85.2" y2="14.9"/>
<line class="st0" x1="116.4" y1="53.2" x2="89.9" y2="58.1"/>
<line class="st0" x1="100.5" y1="100.5" x2="82.1" y2="79.4"/>
<line class="st0" x1="17.4" y1="72.7" x2="44.3" y2="66"/>
<line class="st0" x1="33.7" y1="23.3" x2="52.6" y2="44"/>
<line class="st0" x1="66.8" y1="64" x2="49.5" y2="110.5"/>
<path class="st0" d="M67.8,17.9"/>
<polyline class="st0" points="70.2,19.4 77.3,35 93.3,28.7 "/>
<polyline class="st0" points="105.5,42.9 95.8,57.1 109.4,67.6 "/>
<polyline class="st0" points="103.5,85.4 86.3,84.3 84.3,101.3 "/>
<polyline class="st0" points="29.3,82.5 38.4,67.9 24.3,58.1 "/>
<polyline class="st0" points="31.2,40 48.4,40.2 49.6,23.1 "/>
<polyline class="st0" points="64.5,106 57.3,90.3 41.4,96.6 "/>
<polygon class="st1" points="140.5,96 145.1,107.5 157.4,109.3 165.1,99.6 160.5,88.1 148.3,86.3 "/>
<polygon class="st1" points="150.3,97.4 151.3,99.8 153.8,100.1 155.3,98.2 154.4,95.8 151.9,95.4 "/>
<line class="st1" x1="151.9" y1="95.4" x2="141.5" y2="69.2"/>
<line class="st1" x1="171.3" y1="73.8" x2="161.3" y2="86.8"/>
<line class="st1" x1="183.5" y1="101.7" x2="166.5" y2="99.7"/>
<line class="st1" x1="134.4" y1="123.1" x2="143.9" y2="109.1"/>
<line class="st1" x1="121.6" y1="94.1" x2="138.6" y2="95.8"/>
<line class="st1" x1="153.3" y1="99" x2="164.4" y2="127.2"/>
<path class="st1" d="M134.8,77.7"/>
<polyline class="st1" points="136.5,77.4 146.2,81.5 150.9,72.1 "/>
<polyline class="st1" points="162.2,73.6 163.6,84 174,83.2 "/>
<polyline class="st1" points="178.8,91.9 170.8,98.2 176.7,106.5 "/>
<polyline class="st1" points="143.8,122.7 141.9,112.4 131.5,113.7 "/>
<polyline class="st1" points="127.3,102.6 135.2,95.7 128.7,87.5 "/>
<polyline class="st1" points="169.4,119 159.7,114.8 155.1,124.2 "/>
</svg>
