<?xml version="1.0" encoding="utf-8"?>
<!-- Generator: Adobe Illustrator 24.2.0, SVG Export Plug-In . SVG Version: 6.00 Build 0)  -->
<svg version="1.1" id="Layer_1" xmlns="http://www.w3.org/2000/svg" xmlns:xlink="http://www.w3.org/1999/xlink" x="0px" y="0px"
	 viewBox="0 0 200 200" style="enable-background:new 0 0 200 200;" xml:space="preserve">
<style type="text/css">
	.st0{fill:none;stroke:#62D3FF;stroke-width:8;stroke-miterlimit:10;}
	.st1{fill:none;stroke:#62D3FF;stroke-width:8;stroke-linecap:round;stroke-linejoin:round;stroke-miterlimit:10;}
	.st2{fill:none;stroke:#62D3FF;stroke-width:8;stroke-linecap:round;stroke-miterlimit:10;}
</style>
<path class="st0" d="M144.9,41.1c-2.6-12.8-14-22.3-27.5-22.3c-3.4,0-6.7,0.6-9.8,1.8c-4.5-9.5-14.1-16-25.3-16
	c-15.5,0-28.1,12.6-28.1,28.1c0,3,0.5,6,1.4,8.7c-11.3,4.4-19.3,15.4-19.3,28.3l0,0c0,16.8,13.6,30.3,30.3,30.3h68
	c16.8,0,30.3-13.6,30.3-30.3l0,0C164.9,56.5,156.6,45.3,144.9,41.1z"/>
<polyline class="st1" points="87.9,99.9 118.5,124.8 87.9,124.8 115.2,147 "/>
<path class="st1" d="M103.1,102.4"/>
<line class="st2" x1="48.1" y1="110.4" x2="48.1" y2="131.8"/>
<line class="st2" x1="68" y1="121.1" x2="68" y2="128.8"/>
<line class="st2" x1="134.3" y1="113.4" x2="134.3" y2="121.1"/>
<line class="st2" x1="86.9" y1="143.2" x2="86.9" y2="150.8"/>
<line class="st2" x1="68" y1="143.2" x2="68" y2="150.8"/>
<line class="st2" x1="152.6" y1="114.2" x2="152.6" y2="135.7"/>
<line class="st2" x1="134.3" y1="135.9" x2="134.3" y2="157.4"/>
</svg>
